<mxfile host="Electron" agent="Mozilla/5.0 (Windows NT 10.0; Win64; x64) AppleWebKit/537.36 (KHTML, like Gecko) draw.io/24.7.17 Chrome/128.0.6613.36 Electron/32.0.1 Safari/537.36" version="24.7.17">
  <diagram id="R2lEEEUBdFMjLlhIrx00" name="Page-1">
    <mxGraphModel dx="794" dy="779" grid="1" gridSize="10" guides="1" tooltips="1" connect="1" arrows="1" fold="1" page="1" pageScale="1" pageWidth="850" pageHeight="1100" math="0" shadow="0" extFonts="Permanent Marker^https://fonts.googleapis.com/css?family=Permanent+Marker">
      <root>
        <mxCell id="0" />
        <mxCell id="1" parent="0" />
        <mxCell id="LrgFrGgnKRn9gnrKyvN1-1" value="Parent Folder" style="swimlane;" parent="1" vertex="1">
          <mxGeometry x="30" y="30" width="740" height="530" as="geometry" />
        </mxCell>
        <mxCell id="LrgFrGgnKRn9gnrKyvN1-2" value="Metadata File" style="swimlane;" parent="LrgFrGgnKRn9gnrKyvN1-1" vertex="1">
          <mxGeometry x="10" y="30" width="120" height="70" as="geometry" />
        </mxCell>
        <mxCell id="LrgFrGgnKRn9gnrKyvN1-5" value="l1s0.bin" style="swimlane;fontStyle=0;childLayout=stackLayout;horizontal=1;startSize=26;horizontalStack=0;resizeParent=1;resizeParentMax=0;resizeLast=0;collapsible=1;marginBottom=0;align=center;fontSize=14;" parent="LrgFrGgnKRn9gnrKyvN1-1" vertex="1">
          <mxGeometry x="10" y="120" width="160" height="56" as="geometry" />
        </mxCell>
        <mxCell id="LrgFrGgnKRn9gnrKyvN1-13" value="l2s0" style="swimlane;" parent="LrgFrGgnKRn9gnrKyvN1-1" vertex="1">
          <mxGeometry x="190" y="40" width="200" height="360" as="geometry" />
        </mxCell>
        <mxCell id="LrgFrGgnKRn9gnrKyvN1-14" value="l1s1.bin" style="swimlane;fontStyle=0;childLayout=stackLayout;horizontal=1;startSize=26;horizontalStack=0;resizeParent=1;resizeParentMax=0;resizeLast=0;collapsible=1;marginBottom=0;align=center;fontSize=14;" parent="LrgFrGgnKRn9gnrKyvN1-13" vertex="1">
          <mxGeometry x="10" y="110" width="160" height="56" as="geometry" />
        </mxCell>
        <mxCell id="LrgFrGgnKRn9gnrKyvN1-19" value="l1s2.bin" style="swimlane;fontStyle=0;childLayout=stackLayout;horizontal=1;startSize=26;horizontalStack=0;resizeParent=1;resizeParentMax=0;resizeLast=0;collapsible=1;marginBottom=0;align=center;fontSize=14;" parent="LrgFrGgnKRn9gnrKyvN1-13" vertex="1">
          <mxGeometry x="10" y="196" width="160" height="56" as="geometry" />
        </mxCell>
        <mxCell id="bSfFazO2sdlBXLFyj9ll-1" value="l1s0.bin &lt;symlink&gt;" style="swimlane;fontStyle=0;childLayout=stackLayout;horizontal=1;startSize=26;horizontalStack=0;resizeParent=1;resizeParentMax=0;resizeLast=0;collapsible=1;marginBottom=0;align=center;fontSize=14;" vertex="1" parent="LrgFrGgnKRn9gnrKyvN1-13">
          <mxGeometry x="10" y="30" width="160" height="56" as="geometry" />
        </mxCell>
        <mxCell id="LrgFrGgnKRn9gnrKyvN1-23" value="l3s0" style="swimlane;" parent="LrgFrGgnKRn9gnrKyvN1-1" vertex="1">
          <mxGeometry x="410" y="40" width="310" height="460" as="geometry" />
        </mxCell>
        <mxCell id="LrgFrGgnKRn9gnrKyvN1-32" value="l2s3" style="swimlane;" parent="LrgFrGgnKRn9gnrKyvN1-23" vertex="1">
          <mxGeometry x="10" y="40" width="200" height="360" as="geometry" />
        </mxCell>
        <mxCell id="LrgFrGgnKRn9gnrKyvN1-33" value="l1s1.bin" style="swimlane;fontStyle=0;childLayout=stackLayout;horizontal=1;startSize=26;horizontalStack=0;resizeParent=1;resizeParentMax=0;resizeLast=0;collapsible=1;marginBottom=0;align=center;fontSize=14;fillColor=#ffe6cc;strokeColor=#d79b00;" parent="LrgFrGgnKRn9gnrKyvN1-32" vertex="1">
          <mxGeometry x="10" y="120" width="160" height="56" as="geometry" />
        </mxCell>
        <mxCell id="LrgFrGgnKRn9gnrKyvN1-37" value="l1s2" style="swimlane;fontStyle=0;childLayout=stackLayout;horizontal=1;startSize=26;horizontalStack=0;resizeParent=1;resizeParentMax=0;resizeLast=0;collapsible=1;marginBottom=0;align=center;fontSize=14;fillColor=#d5e8d4;strokeColor=#82b366;" parent="LrgFrGgnKRn9gnrKyvN1-32" vertex="1">
          <mxGeometry x="10" y="196" width="160" height="56" as="geometry" />
        </mxCell>
        <mxCell id="bSfFazO2sdlBXLFyj9ll-3" value="l1s0.bin &lt;symlink&gt;" style="swimlane;fontStyle=0;childLayout=stackLayout;horizontal=1;startSize=26;horizontalStack=0;resizeParent=1;resizeParentMax=0;resizeLast=0;collapsible=1;marginBottom=0;align=center;fontSize=14;" vertex="1" parent="LrgFrGgnKRn9gnrKyvN1-32">
          <mxGeometry x="10" y="40" width="160" height="56" as="geometry" />
        </mxCell>
        <mxCell id="bSfFazO2sdlBXLFyj9ll-2" value="" style="endArrow=classic;html=1;rounded=0;entryX=1;entryY=0.25;entryDx=0;entryDy=0;exitX=0;exitY=0.5;exitDx=0;exitDy=0;" edge="1" parent="LrgFrGgnKRn9gnrKyvN1-1" source="bSfFazO2sdlBXLFyj9ll-1" target="LrgFrGgnKRn9gnrKyvN1-5">
          <mxGeometry width="50" height="50" relative="1" as="geometry">
            <mxPoint x="350" y="400" as="sourcePoint" />
            <mxPoint x="400" y="350" as="targetPoint" />
          </mxGeometry>
        </mxCell>
        <mxCell id="bSfFazO2sdlBXLFyj9ll-4" value="" style="endArrow=classic;html=1;rounded=0;exitX=0;exitY=0.5;exitDx=0;exitDy=0;" edge="1" parent="1" source="bSfFazO2sdlBXLFyj9ll-3">
          <mxGeometry width="50" height="50" relative="1" as="geometry">
            <mxPoint x="380" y="430" as="sourcePoint" />
            <mxPoint x="420" y="100" as="targetPoint" />
          </mxGeometry>
        </mxCell>
      </root>
    </mxGraphModel>
  </diagram>
</mxfile>
